<?xml version="1.0" encoding="utf-8"?>
<!-- Generator: Adobe Illustrator 27.9.6, SVG Export Plug-In . SVG Version: 9.03 Build 54986)  -->
<svg version="1.1" id="Layer_1" xmlns="http://www.w3.org/2000/svg" xmlns:xlink="http://www.w3.org/1999/xlink" x="0px" y="0px"
	 viewBox="0 0 48 48" style="enable-background:new 0 0 48 48;" xml:space="preserve">
<path d="M40.8,6.9L32,4c0,4.4-3.6,8-8,8s-8-3.6-8-8L7.2,6.9c-1.9,0.6-3,2.5-2.7,4.5l1.2,6.9c0.2,1,1,1.7,2,1.7H12v20
	c0,2.2,1.8,4,4,4h16c2.2,0,4-1.8,4-4V20h4.3c1,0,1.8-0.7,2-1.7l1.2-6.9C43.8,9.4,42.6,7.5,40.8,6.9z"/>
</svg>
